<?xml version="1.0" encoding="UTF-8"?>
<svg xmlns="http://www.w3.org/2000/svg" xmlns:xlink="http://www.w3.org/1999/xlink" width="33pt" height="33pt" viewBox="0 0 33 33" version="1.1">
<g id="surface1">
<path style=" stroke:none;fill-rule:nonzero;fill:rgb(100%,100%,100%);fill-opacity:1;" d="M 5.414062 30.164062 C 4.558594 30.164062 3.867188 29.472656 3.867188 28.617188 C 3.867188 27.761719 4.558594 27.070312 5.414062 27.070312 L 28.617188 27.070312 L 29.132812 27.585938 L 29.132812 29.648438 C 29.132812 29.933594 28.902344 30.164062 28.617188 30.164062 Z M 5.414062 30.164062 "/>
<path style=" stroke:none;fill-rule:nonzero;fill:rgb(58.039216%,75.686275%,100%);fill-opacity:1;" d="M 9.539062 32.742188 L 8.078125 32.226562 L 6.445312 32.742188 L 6.445312 29.132812 L 9.539062 29.132812 Z M 9.539062 32.742188 "/>
<path style=" stroke:none;fill-rule:nonzero;fill:rgb(100%,100%,100%);fill-opacity:1;" d="M 9.539062 3.351562 L 26.039062 3.351562 L 26.039062 5.414062 L 9.539062 5.414062 Z M 9.539062 3.351562 "/>
<path style=" stroke:none;fill-rule:nonzero;fill:rgb(58.039216%,75.686275%,100%);fill-opacity:1;" d="M 29.132812 0.773438 L 29.132812 26.554688 C 29.132812 26.839844 28.902344 27.070312 28.617188 27.070312 L 6.445312 27.070312 L 6.445312 0.257812 L 28.617188 0.257812 C 28.902344 0.257812 29.132812 0.488281 29.132812 0.773438 Z M 26.039062 5.414062 L 26.039062 3.351562 L 9.539062 3.351562 L 9.539062 5.414062 Z M 22.863281 16.714844 C 23.246094 15.953125 23.460938 15.09375 23.460938 14.179688 C 23.460938 11.042969 20.925781 8.507812 17.789062 8.507812 C 14.652344 8.507812 12.117188 11.042969 12.117188 14.179688 C 12.117188 16.085938 13.054688 17.777344 14.503906 18.800781 C 14.925781 19.109375 15.398438 19.351562 15.902344 19.527344 C 16.488281 19.738281 17.125 19.851562 17.789062 19.851562 C 20.011719 19.851562 21.933594 18.578125 22.863281 16.714844 Z M 22.863281 16.714844 "/>
<path style=" stroke:none;fill-rule:nonzero;fill:rgb(36.078431%,61.960784%,100%);fill-opacity:1;" d="M 28.617188 0.257812 L 27.585938 0.257812 C 27.871094 0.257812 28.101562 0.488281 28.101562 0.773438 L 28.101562 26.554688 C 28.101562 26.839844 27.871094 27.070312 27.585938 27.070312 L 28.617188 27.070312 C 28.902344 27.070312 29.132812 26.839844 29.132812 26.554688 L 29.132812 0.773438 C 29.132812 0.488281 28.902344 0.257812 28.617188 0.257812 Z M 28.617188 0.257812 "/>
<path style=" stroke:none;fill-rule:nonzero;fill:rgb(36.078431%,61.960784%,100%);fill-opacity:1;" d="M 5.414062 27.070312 C 4.558594 27.070312 3.867188 27.761719 3.867188 28.617188 L 3.867188 1.804688 C 3.867188 0.949219 4.558594 0.257812 5.414062 0.257812 L 6.445312 0.257812 L 6.445312 27.070312 Z M 5.414062 27.070312 "/>
<path style=" stroke:none;fill-rule:nonzero;fill:rgb(58.039216%,75.686275%,100%);fill-opacity:1;" d="M 4.898438 1.804688 C 4.898438 0.949219 5.589844 0.257812 6.445312 0.257812 L 5.414062 0.257812 C 4.558594 0.257812 3.867188 0.949219 3.867188 1.804688 L 3.867188 28.617188 C 3.867188 27.941406 4.296875 27.378906 4.898438 27.164062 Z M 4.898438 1.804688 "/>
<path style=" stroke:none;fill-rule:nonzero;fill:rgb(84.313725%,91.372549%,100%);fill-opacity:1;" d="M 23.460938 14.179688 C 23.460938 17.3125 20.921875 19.851562 17.789062 19.851562 C 14.65625 19.851562 12.117188 17.3125 12.117188 14.179688 C 12.117188 11.046875 14.65625 8.507812 17.789062 8.507812 C 20.921875 8.507812 23.460938 11.046875 23.460938 14.179688 Z M 23.460938 14.179688 "/>
<path style=" stroke:none;fill-rule:nonzero;fill:rgb(39.607843%,42.745098%,47.058824%);fill-opacity:1;" d="M 17.972656 16.566406 L 15.902344 19.527344 C 15.394531 19.351562 14.925781 19.109375 14.503906 18.796875 L 17.015625 15.210938 L 17.949219 16.550781 Z M 17.972656 16.566406 "/>
<path style=" stroke:none;fill-rule:nonzero;fill:rgb(36.078431%,61.960784%,100%);fill-opacity:1;" d="M 17.972656 16.566406 L 15.902344 19.527344 C 15.394531 19.351562 14.925781 19.109375 14.503906 18.796875 L 17.015625 15.210938 L 17.949219 16.550781 Z M 17.972656 16.566406 "/>
<path style=" stroke:none;fill-rule:nonzero;fill:rgb(58.039216%,75.686275%,100%);fill-opacity:1;" d="M 20.367188 13.148438 L 22.863281 16.714844 C 21.933594 18.578125 20.011719 19.851562 17.789062 19.851562 C 17.125 19.851562 16.488281 19.738281 15.902344 19.527344 L 17.972656 16.566406 Z M 20.367188 13.148438 "/>
<path style=" stroke:none;fill-rule:nonzero;fill:rgb(100%,100%,100%);fill-opacity:1;" d="M 15.726562 11.085938 C 16.292969 11.085938 16.757812 11.550781 16.757812 12.117188 C 16.757812 12.683594 16.292969 13.148438 15.726562 13.148438 C 15.160156 13.148438 14.695312 12.683594 14.695312 12.117188 C 14.695312 11.550781 15.160156 11.085938 15.726562 11.085938 Z M 15.726562 11.085938 "/>
<path style=" stroke:none;fill-rule:nonzero;fill:rgb(6.666667%,43.529412%,100%);fill-opacity:1;" d="M 28.617188 27.328125 L 5.414062 27.328125 C 5.273438 27.328125 5.15625 27.210938 5.15625 27.070312 C 5.15625 26.929688 5.273438 26.8125 5.414062 26.8125 L 28.617188 26.8125 C 28.757812 26.8125 28.875 26.929688 28.875 27.070312 C 28.875 27.210938 28.757812 27.328125 28.617188 27.328125 Z M 28.617188 27.328125 "/>
<path style=" stroke:none;fill-rule:nonzero;fill:rgb(6.666667%,43.529412%,100%);fill-opacity:1;" d="M 28.617188 0.515625 L 5.414062 0.515625 C 5.273438 0.515625 5.15625 0.398438 5.15625 0.257812 C 5.15625 0.117188 5.273438 0 5.414062 0 L 28.617188 0 C 28.757812 0 28.875 0.117188 28.875 0.257812 C 28.875 0.398438 28.757812 0.515625 28.617188 0.515625 Z M 28.617188 0.515625 "/>
<path style=" stroke:none;fill-rule:nonzero;fill:rgb(6.666667%,43.529412%,100%);fill-opacity:1;" d="M 5.414062 30.421875 C 4.417969 30.421875 3.609375 29.613281 3.609375 28.617188 C 3.609375 27.621094 4.417969 26.8125 5.414062 26.8125 C 5.554688 26.8125 5.671875 26.929688 5.671875 27.070312 C 5.671875 27.210938 5.554688 27.328125 5.414062 27.328125 C 4.703125 27.328125 4.125 27.90625 4.125 28.617188 C 4.125 29.328125 4.703125 29.90625 5.414062 29.90625 C 5.554688 29.90625 5.671875 30.023438 5.671875 30.164062 C 5.671875 30.304688 5.554688 30.421875 5.414062 30.421875 Z M 5.414062 30.421875 "/>
<path style=" stroke:none;fill-rule:nonzero;fill:rgb(6.666667%,43.529412%,100%);fill-opacity:1;" d="M 5.414062 29.390625 C 4.988281 29.390625 4.640625 29.042969 4.640625 28.617188 C 4.640625 28.191406 4.988281 27.84375 5.414062 27.84375 C 5.554688 27.84375 5.671875 27.960938 5.671875 28.101562 C 5.671875 28.242188 5.554688 28.359375 5.414062 28.359375 C 5.273438 28.359375 5.15625 28.476562 5.15625 28.617188 C 5.15625 28.757812 5.273438 28.875 5.414062 28.875 C 5.554688 28.875 5.671875 28.992188 5.671875 29.132812 C 5.671875 29.273438 5.554688 29.390625 5.414062 29.390625 Z M 5.414062 29.390625 "/>
<path style=" stroke:none;fill-rule:nonzero;fill:rgb(6.666667%,43.529412%,100%);fill-opacity:1;" d="M 3.867188 2.0625 C 3.726562 2.0625 3.609375 1.945312 3.609375 1.804688 C 3.609375 0.808594 4.417969 0 5.414062 0 C 5.554688 0 5.671875 0.117188 5.671875 0.257812 C 5.671875 0.398438 5.554688 0.515625 5.414062 0.515625 C 4.703125 0.515625 4.125 1.09375 4.125 1.804688 C 4.125 1.945312 4.007812 2.0625 3.867188 2.0625 Z M 3.867188 2.0625 "/>
<path style=" stroke:none;fill-rule:nonzero;fill:rgb(6.666667%,43.529412%,100%);fill-opacity:1;" d="M 3.867188 28.875 C 3.726562 28.875 3.609375 28.757812 3.609375 28.617188 L 3.609375 1.804688 C 3.609375 1.664062 3.726562 1.546875 3.867188 1.546875 C 4.007812 1.546875 4.125 1.664062 4.125 1.804688 L 4.125 28.617188 C 4.125 28.757812 4.007812 28.875 3.867188 28.875 Z M 3.867188 28.875 "/>
<path style=" stroke:none;fill-rule:nonzero;fill:rgb(6.666667%,43.529412%,100%);fill-opacity:1;" d="M 29.132812 1.03125 C 28.992188 1.03125 28.875 0.914062 28.875 0.773438 C 28.875 0.632812 28.757812 0.515625 28.617188 0.515625 C 28.476562 0.515625 28.359375 0.398438 28.359375 0.257812 C 28.359375 0.117188 28.476562 0 28.617188 0 C 29.042969 0 29.390625 0.347656 29.390625 0.773438 C 29.390625 0.914062 29.273438 1.03125 29.132812 1.03125 Z M 29.132812 1.03125 "/>
<path style=" stroke:none;fill-rule:nonzero;fill:rgb(6.666667%,43.529412%,100%);fill-opacity:1;" d="M 28.617188 27.328125 C 28.476562 27.328125 28.359375 27.210938 28.359375 27.070312 C 28.359375 26.929688 28.476562 26.8125 28.617188 26.8125 C 28.757812 26.8125 28.875 26.695312 28.875 26.554688 C 28.875 26.414062 28.992188 26.296875 29.132812 26.296875 C 29.273438 26.296875 29.390625 26.414062 29.390625 26.554688 C 29.390625 26.980469 29.042969 27.328125 28.617188 27.328125 Z M 28.617188 27.328125 "/>
<path style=" stroke:none;fill-rule:nonzero;fill:rgb(6.666667%,43.529412%,100%);fill-opacity:1;" d="M 28.617188 30.421875 L 10.570312 30.421875 C 10.429688 30.421875 10.3125 30.304688 10.3125 30.164062 C 10.3125 30.023438 10.429688 29.90625 10.570312 29.90625 L 28.617188 29.90625 C 28.757812 29.90625 28.875 30.023438 28.875 30.164062 C 28.875 30.304688 28.757812 30.421875 28.617188 30.421875 Z M 28.617188 30.421875 "/>
<path style=" stroke:none;fill-rule:nonzero;fill:rgb(6.666667%,43.529412%,100%);fill-opacity:1;" d="M 28.617188 30.421875 C 28.476562 30.421875 28.359375 30.304688 28.359375 30.164062 C 28.359375 30.023438 28.476562 29.90625 28.617188 29.90625 C 28.757812 29.90625 28.875 29.789062 28.875 29.648438 C 28.875 29.507812 28.992188 29.390625 29.132812 29.390625 C 29.273438 29.390625 29.390625 29.507812 29.390625 29.648438 C 29.390625 30.074219 29.042969 30.421875 28.617188 30.421875 Z M 28.617188 30.421875 "/>
<path style=" stroke:none;fill-rule:nonzero;fill:rgb(6.666667%,43.529412%,100%);fill-opacity:1;" d="M 29.132812 26.8125 C 28.992188 26.8125 28.875 26.695312 28.875 26.554688 L 28.875 0.773438 C 28.875 0.632812 28.992188 0.515625 29.132812 0.515625 C 29.273438 0.515625 29.390625 0.632812 29.390625 0.773438 L 29.390625 26.554688 C 29.390625 26.695312 29.273438 26.8125 29.132812 26.8125 Z M 29.132812 26.8125 "/>
<path style=" stroke:none;fill-rule:nonzero;fill:rgb(6.666667%,43.529412%,100%);fill-opacity:1;" d="M 29.132812 29.90625 C 28.992188 29.90625 28.875 29.789062 28.875 29.648438 L 28.875 27.585938 C 28.875 27.445312 28.992188 27.328125 29.132812 27.328125 C 29.273438 27.328125 29.390625 27.445312 29.390625 27.585938 L 29.390625 29.648438 C 29.390625 29.789062 29.273438 29.90625 29.132812 29.90625 Z M 29.132812 29.90625 "/>
<path style=" stroke:none;fill-rule:nonzero;fill:rgb(6.666667%,43.529412%,100%);fill-opacity:1;" d="M 6.445312 26.8125 C 6.304688 26.8125 6.1875 26.695312 6.1875 26.554688 L 6.1875 0.773438 C 6.1875 0.632812 6.304688 0.515625 6.445312 0.515625 C 6.585938 0.515625 6.703125 0.632812 6.703125 0.773438 L 6.703125 26.554688 C 6.703125 26.695312 6.585938 26.8125 6.445312 26.8125 Z M 6.445312 26.8125 "/>
<path style=" stroke:none;fill-rule:nonzero;fill:rgb(6.666667%,43.529412%,100%);fill-opacity:1;" d="M 28.101562 29.390625 L 10.570312 29.390625 C 10.429688 29.390625 10.3125 29.273438 10.3125 29.132812 C 10.3125 28.992188 10.429688 28.875 10.570312 28.875 L 28.101562 28.875 C 28.242188 28.875 28.359375 28.992188 28.359375 29.132812 C 28.359375 29.273438 28.242188 29.390625 28.101562 29.390625 Z M 28.101562 29.390625 "/>
<path style=" stroke:none;fill-rule:nonzero;fill:rgb(6.666667%,43.529412%,100%);fill-opacity:1;" d="M 28.101562 28.359375 L 5.414062 28.359375 C 5.273438 28.359375 5.15625 28.242188 5.15625 28.101562 C 5.15625 27.960938 5.273438 27.84375 5.414062 27.84375 L 28.101562 27.84375 C 28.242188 27.84375 28.359375 27.960938 28.359375 28.101562 C 28.359375 28.242188 28.242188 28.359375 28.101562 28.359375 Z M 28.101562 28.359375 "/>
<path style=" stroke:none;fill-rule:nonzero;fill:rgb(6.666667%,43.529412%,100%);fill-opacity:1;" d="M 26.039062 5.671875 L 9.539062 5.671875 C 9.398438 5.671875 9.28125 5.554688 9.28125 5.414062 L 9.28125 3.351562 C 9.28125 3.210938 9.398438 3.09375 9.539062 3.09375 L 26.039062 3.09375 C 26.179688 3.09375 26.296875 3.210938 26.296875 3.351562 L 26.296875 5.414062 C 26.296875 5.554688 26.179688 5.671875 26.039062 5.671875 Z M 9.796875 5.15625 L 25.78125 5.15625 L 25.78125 3.609375 L 9.796875 3.609375 Z M 9.796875 5.15625 "/>
<path style=" stroke:none;fill-rule:nonzero;fill:rgb(6.666667%,43.529412%,100%);fill-opacity:1;" d="M 23.460938 4.640625 L 12.117188 4.640625 C 11.976562 4.640625 11.859375 4.523438 11.859375 4.382812 C 11.859375 4.242188 11.976562 4.125 12.117188 4.125 L 23.460938 4.125 C 23.601562 4.125 23.71875 4.242188 23.71875 4.382812 C 23.71875 4.523438 23.601562 4.640625 23.460938 4.640625 Z M 23.460938 4.640625 "/>
<path style=" stroke:none;fill-rule:nonzero;fill:rgb(6.666667%,43.529412%,100%);fill-opacity:1;" d="M 23.460938 23.203125 L 12.117188 23.203125 C 11.976562 23.203125 11.859375 23.085938 11.859375 22.945312 C 11.859375 22.804688 11.976562 22.6875 12.117188 22.6875 L 23.460938 22.6875 C 23.601562 22.6875 23.71875 22.804688 23.71875 22.945312 C 23.71875 23.085938 23.601562 23.203125 23.460938 23.203125 Z M 23.460938 23.203125 "/>
<path style=" stroke:none;fill-rule:nonzero;fill:rgb(6.666667%,43.529412%,100%);fill-opacity:1;" d="M 20.367188 24.234375 L 15.210938 24.234375 C 15.070312 24.234375 14.953125 24.117188 14.953125 23.976562 C 14.953125 23.835938 15.070312 23.71875 15.210938 23.71875 L 20.367188 23.71875 C 20.507812 23.71875 20.625 23.835938 20.625 23.976562 C 20.625 24.117188 20.507812 24.234375 20.367188 24.234375 Z M 20.367188 24.234375 "/>
<path style=" stroke:none;fill-rule:nonzero;fill:rgb(6.666667%,43.529412%,100%);fill-opacity:1;" d="M 6.445312 33 C 6.304688 33 6.1875 32.882812 6.1875 32.742188 L 6.1875 29.132812 C 6.1875 28.992188 6.304688 28.875 6.445312 28.875 C 6.585938 28.875 6.703125 28.992188 6.703125 29.132812 L 6.703125 32.742188 C 6.703125 32.882812 6.585938 33 6.445312 33 Z M 6.445312 33 "/>
<path style=" stroke:none;fill-rule:nonzero;fill:rgb(6.666667%,43.529412%,100%);fill-opacity:1;" d="M 9.539062 33 C 9.398438 33 9.28125 32.882812 9.28125 32.742188 L 9.28125 29.132812 C 9.28125 28.992188 9.398438 28.875 9.539062 28.875 C 9.679688 28.875 9.796875 28.992188 9.796875 29.132812 L 9.796875 32.742188 C 9.796875 32.882812 9.679688 33 9.539062 33 Z M 9.539062 33 "/>
<path style=" stroke:none;fill-rule:nonzero;fill:rgb(6.666667%,43.529412%,100%);fill-opacity:1;" d="M 6.445312 33 C 6.335938 33 6.238281 32.929688 6.199219 32.824219 C 6.15625 32.6875 6.230469 32.542969 6.363281 32.496094 L 7.910156 31.980469 C 8.046875 31.9375 8.191406 32.011719 8.238281 32.144531 C 8.28125 32.28125 8.207031 32.425781 8.074219 32.472656 L 6.527344 32.988281 C 6.5 32.996094 6.472656 33 6.445312 33 Z M 6.445312 33 "/>
<path style=" stroke:none;fill-rule:nonzero;fill:rgb(6.666667%,43.529412%,100%);fill-opacity:1;" d="M 9.539062 33 C 9.511719 33 9.484375 32.996094 9.457031 32.988281 L 7.910156 32.472656 C 7.777344 32.425781 7.703125 32.28125 7.746094 32.144531 C 7.792969 32.011719 7.9375 31.9375 8.074219 31.980469 L 9.621094 32.496094 C 9.753906 32.542969 9.828125 32.6875 9.785156 32.824219 C 9.746094 32.929688 9.648438 33 9.539062 33 Z M 9.539062 33 "/>
<path style=" stroke:none;fill-rule:nonzero;fill:rgb(6.666667%,43.529412%,100%);fill-opacity:1;" d="M 7.992188 31.453125 C 7.851562 31.453125 7.734375 31.335938 7.734375 31.195312 L 7.734375 29.195312 C 7.734375 29.054688 7.851562 28.9375 7.992188 28.9375 C 8.132812 28.9375 8.25 29.054688 8.25 29.195312 L 8.25 31.195312 C 8.25 31.335938 8.132812 31.453125 7.992188 31.453125 Z M 7.992188 31.453125 "/>
<path style=" stroke:none;fill-rule:nonzero;fill:rgb(6.666667%,43.529412%,100%);fill-opacity:1;" d="M 17.789062 20.109375 C 17.105469 20.109375 16.441406 19.992188 15.816406 19.769531 C 15.285156 19.585938 14.792969 19.328125 14.351562 19.007812 C 12.792969 17.910156 11.859375 16.101562 11.859375 14.179688 C 11.859375 10.910156 14.519531 8.25 17.789062 8.25 C 21.058594 8.25 23.71875 10.910156 23.71875 14.179688 C 23.71875 15.109375 23.507812 16 23.09375 16.832031 C 22.085938 18.851562 20.050781 20.109375 17.789062 20.109375 Z M 17.789062 8.765625 C 14.804688 8.765625 12.375 11.191406 12.375 14.179688 C 12.375 15.933594 13.226562 17.582031 14.652344 18.585938 C 15.054688 18.882812 15.503906 19.113281 15.988281 19.28125 C 16.558594 19.488281 17.164062 19.59375 17.789062 19.59375 C 19.855469 19.59375 21.710938 18.445312 22.632812 16.601562 C 23.011719 15.84375 23.203125 15.027344 23.203125 14.179688 C 23.203125 11.191406 20.773438 8.765625 17.789062 8.765625 Z M 17.789062 8.765625 "/>
<path style=" stroke:none;fill-rule:nonzero;fill:rgb(6.666667%,43.529412%,100%);fill-opacity:1;" d="M 14.503906 19.054688 C 14.453125 19.054688 14.402344 19.042969 14.355469 19.007812 C 14.238281 18.929688 14.210938 18.765625 14.292969 18.652344 L 16.804688 15.0625 C 16.886719 14.945312 17.046875 14.917969 17.164062 15 C 17.28125 15.082031 17.308594 15.242188 17.226562 15.359375 L 14.714844 18.945312 C 14.664062 19.019531 14.585938 19.054688 14.503906 19.054688 Z M 14.503906 19.054688 "/>
<path style=" stroke:none;fill-rule:nonzero;fill:rgb(6.666667%,43.529412%,100%);fill-opacity:1;" d="M 17.949219 16.808594 C 17.867188 16.808594 17.785156 16.769531 17.738281 16.699219 L 16.804688 15.355469 C 16.722656 15.238281 16.75 15.078125 16.867188 15 C 16.984375 14.917969 17.144531 14.945312 17.226562 15.0625 L 18.160156 16.402344 C 18.242188 16.519531 18.214844 16.679688 18.097656 16.761719 C 18.050781 16.792969 18 16.808594 17.949219 16.808594 Z M 17.949219 16.808594 "/>
<path style=" stroke:none;fill-rule:nonzero;fill:rgb(6.666667%,43.529412%,100%);fill-opacity:1;" d="M 15.902344 19.785156 C 15.851562 19.785156 15.800781 19.769531 15.753906 19.738281 C 15.636719 19.65625 15.609375 19.496094 15.691406 19.378906 L 20.15625 13 C 20.238281 12.882812 20.398438 12.855469 20.515625 12.9375 C 20.632812 13.019531 20.660156 13.179688 20.578125 13.296875 L 16.113281 19.675781 C 16.0625 19.746094 15.984375 19.785156 15.902344 19.785156 Z M 15.902344 19.785156 "/>
<path style=" stroke:none;fill-rule:nonzero;fill:rgb(6.666667%,43.529412%,100%);fill-opacity:1;" d="M 22.863281 16.972656 C 22.78125 16.972656 22.703125 16.933594 22.652344 16.863281 L 20.15625 13.292969 C 20.074219 13.179688 20.101562 13.019531 20.21875 12.9375 C 20.335938 12.855469 20.496094 12.882812 20.578125 13 L 23.074219 16.566406 C 23.15625 16.683594 23.128906 16.84375 23.011719 16.925781 C 22.964844 16.957031 22.914062 16.972656 22.863281 16.972656 Z M 22.863281 16.972656 "/>
<path style=" stroke:none;fill-rule:nonzero;fill:rgb(6.666667%,43.529412%,100%);fill-opacity:1;" d="M 15.726562 13.40625 C 15.015625 13.40625 14.4375 12.828125 14.4375 12.117188 C 14.4375 11.40625 15.015625 10.828125 15.726562 10.828125 C 16.4375 10.828125 17.015625 11.40625 17.015625 12.117188 C 17.015625 12.828125 16.4375 13.40625 15.726562 13.40625 Z M 15.726562 11.34375 C 15.300781 11.34375 14.953125 11.691406 14.953125 12.117188 C 14.953125 12.542969 15.300781 12.890625 15.726562 12.890625 C 16.152344 12.890625 16.5 12.542969 16.5 12.117188 C 16.5 11.691406 16.152344 11.34375 15.726562 11.34375 Z M 15.726562 11.34375 "/>
</g>
</svg>
